PathFileType	3	(X/Y/Z)	F:\ViconData\AntennenMessung\Messung1\Session1\ID24.trc
DataRate	CameraRate	NumFrames	NumMarkers	Units	OrigDataRate	OrigDataStartFrame	OrigNumFrames
120.0	120.0	4	70	mm	120.0	473	1260	
Frame#	Time	Ashort			Along			Atop			A4			Bshort			Blong			Btop			B4			Cshort			Clong			Ctop			C4			Dshort			Dlong			Dtop			D4			Eshort			Elong			Etop			E4			Fshort			Flong			Ftop			F4			Gshort			Glong			Gtop			G4			Hshort			Hlong			Htop			H4			I1			I2			I3			I4			I5			WandAshort			WandAlong			WandAtop			WandA4			WandA15			WandBshort			WandB4			WandB5			WandBtop			WandBlong			WandCshort			WandClong			WandCtop			WandC4			WandC5			Acenter			Aantenna			Bcenter			Bantenna			Ccenter			Cantenna			Dcenter			Dantenna			Ecenter			Eantenna			Fcenter			Fantenna			Gcenter			Gantenna			Hcenter			Hantenna			Icenter			Iantenna			
		X1	Y1	Z1	X2	Y2	Z2	X3	Y3	Z3	X4	Y4	Z4	X5	Y5	Z5	X6	Y6	Z6	X7	Y7	Z7	X8	Y8	Z8	X9	Y9	Z9	X10	Y10	Z10	X11	Y11	Z11	X12	Y12	Z12	X13	Y13	Z13	X14	Y14	Z14	X15	Y15	Z15	X16	Y16	Z16	X17	Y17	Z17	X18	Y18	Z18	X19	Y19	Z19	X20	Y20	Z20	X21	Y21	Z21	X22	Y22	Z22	X23	Y23	Z23	X24	Y24	Z24	X25	Y25	Z25	X26	Y26	Z26	X27	Y27	Z27	X28	Y28	Z28	X29	Y29	Z29	X30	Y30	Z30	X31	Y31	Z31	X32	Y32	Z32	X33	Y33	Z33	X34	Y34	Z34	X35	Y35	Z35	X36	Y36	Z36	X37	Y37	Z37	X38	Y38	Z38	X39	Y39	Z39	X40	Y40	Z40	X41	Y41	Z41	X42	Y42	Z42	X43	Y43	Z43	X44	Y44	Z44	X45	Y45	Z45	X46	Y46	Z46	X47	Y47	Z47	X48	Y48	Z48	X49	Y49	Z49	X50	Y50	Z50	X51	Y51	Z51	X52	Y52	Z52	X53	Y53	Z53	X54	Y54	Z54	X55	Y55	Z55	X56	Y56	Z56	X57	Y57	Z57	X58	Y58	Z58	X59	Y59	Z59	X60	Y60	Z60	X61	Y61	Z61	X62	Y62	Z62	X63	Y63	Z63	X64	Y64	Z64	X65	Y65	Z65	X66	Y66	Z66	X67	Y67	Z67	X68	Y68	Z68	X69	Y69	Z69	X70	Y70	Z70	
473	3.9333333	-1038.1826	214.48383	-1644.0314	-1109.4052	204.32587	-1599.3125	-1064.2307	172.9437	-1625.0636	-1054.1594	262.31091	-1634.8499	-1352.5244	235.29622	1003.4698	-1281.4174	227.25705	1052.4596	-1322.5905	193.71921	1021.0924	-1284.3478	287.92169	1052.7411	814.08606	187.62476	1209.4463	892.25012	178.75629	1179.0968	844.41541	145.575	1198.3672	860.92706	292.57974	1168.5422	1115.7888	209.98103	-1401.7417	1056.2306	194.17497	-1460.2681	1094.6221	162.03188	-1423.9125	1069.6729	239.43922	-1426.2153	-1204.6926	1686.0531	-1562.8417	-1129.1627	1688.317	-1605.8771	-1173.1665	1724.307	-1581.8484	-1134.035	1580.9753	-1603.8221	-1239.5469	1699.1066	1119.579	-1309.2555	1698.708	1071.9686	-1270.4059	1736.3059	1096.965	-1244.8826	1593.7312	1106.0042	988.89209	1664.2007	1162.1771	957.75366	1700.2374	1183.9314	922.8869	1661.9817	1215.1357	939.8515	1659.4465	1159.8221	999.01337	1668.4683	-1579.4236	1058.7822	1670.0153	-1518.6273	1024.9595	1708.0737	-1551.0902	1059.2516	1672.1807	-1585.4116	-180.72104	1639.0101	-226.09167	-266.42587	1637.8649	-229.17224	-219.24165	1675.3655	-228.8667	-217.29834	1636.5264	-259.34857	-220.53624	1640.9702	-180.25743																																														-1069.2041	210.05945	-1624.5538	-1074.3832	248.71037	-1624.0228	-1321.0774	231.74089	1025.1354	-1319.5353	270.49191	1029.2561	847.94733	183.78285	1196.2987	851.53192	222.56099	1194.1992	1088.4427	202.72372	-1428.6139	1082.6254	241.03258	-1433.0399	-1171.8741	1687.0367	-1581.5408	-1170.5227	1648.0615	-1581.2192	-1270.9763	1698.9268	1098.1128	-1271.5712	1659.9497	1099.3099	953.37036	1705.3101	1186.9937	973.18854	1733.4791	1168.6976	1026.4247	1669.1776	-1551.541	1027.8927	1630.2079	-1551.9927	-218.79951	1638.5013	-227.46036	-218.33217	1599.5323	-225.97374
474	3.9416667	-1038.1764	214.54074	-1644.0532	-1109.4393	204.27127	-1599.2705	-1064.0096	172.62178	-1625.1075	-1054.1318	262.37332	-1634.8982	-1352.7018	235.0218	1003.4838	-1281.3939	227.27057	1052.4177	-1322.4913	193.88614	1020.9808	-1284.3132	287.96686	1052.6702	814.10535	187.6151	1209.384	892.5675	179.37653	1178.5625	844.46399	145.59773	1198.3418	860.92444	292.56546	1168.4541	1115.7668	209.97433	-1401.7513	1056.2244	194.12541	-1460.2699	1094.6742	162.16112	-1423.9636	1069.6671	239.45792	-1426.1688	-1204.7092	1686.057	-1562.8197	-1129.153	1688.3234	-1605.885	-1173.1628	1724.3112	-1581.8472	-1134.0201	1580.9969	-1603.8518	-1239.5405	1699.1073	1119.5859	-1309.3533	1698.8479	1072.017	-1270.3936	1736.2992	1096.9707	-1245.0211	1593.4073	1106.4517	988.92987	1664.2207	1162.1624	957.74176	1700.2994	1183.9507	922.93323	1661.9733	1215.1409	939.841	1659.4736	1159.7614	999.02783	1668.4688	-1579.4371	1058.7748	1670.016	-1518.636	1024.9583	1708.0737	-1551.0938	1059.2612	1672.1798	-1585.4194	-180.52243	1639.1533	-226.18889	-266.41489	1637.8569	-229.17767	-219.24812	1675.3732	-228.86914	-217.28168	1636.5031	-259.34589	-220.53906	1640.948	-180.26694																																														-1069.1014	210.08421	-1624.6193	-1074.3535	248.72566	-1624.1158	-1321.2133	231.59897	1025.0923	-1319.9	270.34726	1029.3165	847.66498	184.09129	1196.201	850.89191	222.89761	1194.0431	1088.444	202.7016	-1428.6042	1082.5576	241.00468	-1432.9888	-1171.8685	1687.042	-1581.538	-1170.5153	1648.0668	-1581.2147	-1271.0399	1698.9901	1098.1227	-1271.7153	1660.0145	1099.3264	953.40308	1705.3184	1186.9816	973.20801	1733.4921	1168.6785	1026.4307	1669.1782	-1551.5507	1027.9058	1630.2089	-1552.0087	-218.73972	1638.5765	-227.51871	-218.20131	1599.6064	-226.08853
475	3.95	-1038.1833	214.59245	-1644.0815	-1109.4386	204.32611	-1599.2874	-1064.2954	172.94057	-1625.0062	-1054.1766	262.33041	-1634.8706	-1352.6311	235.22078	1003.4562	-1281.4747	227.10445	1052.4314	-1322.644	193.75319	1021.1077	-1284.4164	287.98376	1052.7357	814.00049	187.6539	1209.368	892.15826	178.71458	1179.1299	844.38086	145.56018	1198.3262	860.9809	292.5256	1168.3887	1115.7622	209.97649	-1401.7526	1056.2528	194.13083	-1460.196	1094.7861	162.09631	-1423.988	1069.675	239.45599	-1426.1895	-1204.678	1686.0438	-1562.8462	-1129.1548	1688.2987	-1605.8728	-1173.1589	1724.3137	-1581.8552	-1134.0326	1580.9825	-1603.8176	-1239.5448	1699.0966	1119.5876	-1309.3093	1698.7808	1071.9968	-1270.382	1736.283	1096.958	-1244.9005	1593.6372	1106.3844	988.95752	1664.2654	1162.1749	957.67609	1700.2294	1183.9333	922.91058	1661.9637	1215.1486	939.82385	1659.4474	1159.8033	999.03644	1668.469	-1579.4353	1058.9163	1670.1946	-1518.627	1024.9602	1708.078	-1551.0974	1059.2615	1672.1879	-1585.4188	-180.52264	1639.1354	-226.18513	-266.50766	1637.9481	-229.14455	-219.24095	1675.3706	-228.88139	-217.30904	1636.5342	-259.34717	-220.56436	1640.942	-180.25121																																														-1069.3319	210.1046	-1624.5001	-1074.5687	248.74782	-1623.974	-1321.1082	231.62517	1025.1526	-1319.5369	270.37311	1029.291	847.94263	183.77174	1196.2361	851.55695	222.54594	1194.1154	1088.4641	202.70778	-1428.5615	1082.5021	241.00725	-1432.8749	-1171.8658	1687.0234	-1581.5397	-1170.5143	1648.0483	-1581.2098	-1271.0084	1698.954	1098.1243	-1271.6626	1659.9785	1099.3419	953.22644	1705.3451	1187.0284	972.95447	1733.5753	1168.7292	1026.5168	1669.2609	-1551.5287	1028.0795	1630.2946	-1551.9617	-218.78084	1638.6071	-227.50188	-218.29315	1599.6375	-226.0396
476	3.9583333	-1038.1975	214.49908	-1644.031	-1109.4142	204.33748	-1599.2899	-1063.7653	172.36305	-1625.4203	-1054.1458	262.30716	-1634.8286	-1352.6276	235.20224	1003.5217	-1281.3011	227.16617	1052.4832	-1322.6252	193.73532	1021.0668	-1284.5835	287.89005	1052.7925	814.08093	187.63658	1209.4708	892.10345	178.64867	1179.1034	844.36462	145.60764	1198.3726	860.96332	292.55539	1168.538	1115.7532	209.96683	-1401.7346	1056.2412	194.12257	-1460.1862	1094.7633	162.0768	-1423.9319	1069.658	239.44202	-1426.1914	-1204.6986	1686.0564	-1562.8414	-1129.1469	1688.3186	-1605.8813	-1173.1487	1724.3143	-1581.8582	-1134.0343	1581.0105	-1603.8245	-1239.5616	1699.1261	1119.5887	-1309.3033	1698.7593	1071.9933	-1270.4105	1736.3135	1096.9691	-1244.9718	1593.4561	1106.27	988.92883	1664.2258	1162.1735	957.64197	1700.2767	1183.8768	922.26996	1662.1936	1215.0654	939.84607	1659.4634	1159.7773	999.02844	1668.4695	-1579.436	1058.7849	1670.0128	-1518.6334	1024.9609	1708.0858	-1551.1089	1059.2675	1672.1771	-1585.4163	-180.5126	1639.1506	-226.18199	-266.29205	1637.7499	-229.19286	-219.23634	1675.3757	-228.87433	-217.28987	1636.5123	-259.33521	-220.55573	1640.9337	-180.25124																																														-1068.7775	210.13576	-1624.8195	-1073.9067	248.79207	-1624.2046	-1321.1442	231.65514	1025.1331	-1319.631	270.40363	1029.2883	847.94623	183.73541	1196.2899	851.58832	222.50717	1194.1721	1088.4675	202.70236	-1428.5341	1082.532	241.00308	-1432.8729	-1171.8572	1687.0397	-1581.5503	-1170.5067	1648.0643	-1581.2284	-1271.0059	1698.9607	1098.1294	-1271.6272	1659.9845	1099.3401	952.96918	1705.6608	1187.1183	972.88806	1733.864	1168.985	1026.4249	1669.1769	-1551.5599	1027.891	1630.2072	-1552.0117	-218.68213	1638.5272	-227.52173	-218.09604	1599.5579	-226.09131
